<?xml version="1.0" encoding="utf-8"?>
<!-- Generator: Adobe Illustrator 19.2.0, SVG Export Plug-In . SVG Version: 6.00 Build 0)  -->
<svg version="1.1" id="Isolation_Mode" xmlns="http://www.w3.org/2000/svg" xmlns:xlink="http://www.w3.org/1999/xlink" x="0px"
	 y="0px" viewBox="0 0 43.5 60" style="enable-background:new 0 0 43.5 60;" xml:space="preserve">
<style type="text/css">
	.st0{fill:#1DA04D;}
</style>
<path class="st0" d="M21.2,29.9l4.9-18.9c0.2-0.7,0.1-1.4-0.3-2.1c-0.4-0.6-0.9-1.1-1.7-1.3c-0.2-0.1-0.5-0.1-0.7-0.1
	c-1.2,0-2.3,0.8-2.6,2l-4.9,19l0.3,1.4H21.2z"/>
<path class="st0" d="M13.7,29.9h0.6l-0.3-1.4L10.3,9.6C10,8.3,8.9,7.4,7.6,7.4c-0.2,0-0.3,0-0.5,0.1C6.4,7.6,5.8,8,5.3,8.6
	c-0.4,0.6-0.6,1.3-0.4,2l3.9,19.2H13.7z"/>
<path class="st0" d="M25.2,23.5l-1.7,6.4h5l1.3-4.9c0.4-1.3-0.3-2.7-1.6-3.1c-0.2-0.1-0.5-0.1-0.7-0.1
	C26.5,21.7,25.5,22.5,25.2,23.5"/>
<path class="st0" d="M31.8,43.3c-0.2,0-0.4,0-0.6,0c-0.4,0-0.8-0.1-1.2-0.2c-1.1-0.3-2-1.1-2.5-2.1C27.2,40.6,27,40,27,39.4
	c0-0.5,0-1,0.1-1.4c0,0,0,0,0-0.1l0.4-1.5c-0.2,0.2-0.3,0.3-0.5,0.5c-0.2,0.2-0.5,0.4-0.7,0.6c-0.2,0.3-0.5,0.5-0.8,0.6
	c-0.2,0.1-0.4,0.2-0.7,0.2c-0.7,0.3-1.4,0.4-2.2,0.4c-0.1,0-0.2,0-0.3,0l-1.1,0l-0.5,0l-0.9,0l-0.9,0l-0.9,0l-0.9,0l-0.6,0
	c0.2,0.2,0.4,0.5,0.6,0.7c0.3,0.3,0.5,0.5,0.8,0.8c0.1,0.1,0.2,0.3,0.3,0.4c0.2,0.2,0.4,0.5,0.5,0.7c0.2,0.3,0.3,0.5,0.5,0.8
	c0.5,0.9,1,1.9,1.4,2.9c0.1,0.2,0.2,0.4,0.2,0.6l-0.8,0.3L19,46.2c-0.4-1.1-0.8-2.1-1.4-3.1c-0.2-0.3-0.3-0.5-0.5-0.8
	c-0.1-0.1-0.1-0.2-0.2-0.3c-0.1-0.2-0.3-0.3-0.4-0.5c-0.1-0.1-0.1-0.1-0.2-0.2c-0.2-0.2-0.4-0.5-0.6-0.7c-0.7-0.7-1.4-1.4-2.3-2
	c0,0,0,0,0,0c-0.1-0.1-0.2-0.2-0.3-0.4c-0.1-0.2-0.1-0.4,0-0.6c0.1-0.2,0.2-0.3,0.3-0.4c0.1-0.1,0.2-0.2,0.4-0.2c0.1,0,0.1,0,0.2,0
	h0l1.9,0l0.9,0l0.9,0l1.7,0h0.9l0-0.2c0,0.1,0,0.1,0,0.2l0.9,0l0-0.1c0,0,0,0.1,0,0.1l1,0l0.2,0c1.5,0,2.7-0.7,3.4-1.4
	c1-0.9,1.7-2.2,2-3.6c0-0.1,0.1-0.3,0.1-0.4h-0.9h-4h-0.5h-0.5h-0.5h-0.5h-0.5h-2.5h-1.7h-0.9h-0.5h-0.4h-0.5h-0.9H9.2H8.2H7.9
	c-0.1,0.3-0.3,0.6-0.4,0.9c-0.7,1.8-1.1,3.7-1.1,5.6c0,8.3,6.5,15,14.4,15c7,0,12.9-5.2,14.2-12.2C34.4,42.3,33.2,43.1,31.8,43.3"/>
<path class="st0" d="M35,25c-0.2-0.1-0.5-0.1-0.7-0.1c-1.1,0-2,0.7-2.3,1.7l-1.1,4.2l-0.8,3.1l-1.2,4.5c-0.2,0.7-0.1,1.3,0.2,1.9
	c0.3,0.6,0.8,1,1.4,1.2c0.6,0.2,1.3,0.1,1.8-0.2c0.6-0.3,1-0.8,1.2-1.4l1.3-5.1l0.5-1.7l0.4-1.5l0.9-3.5C37.1,26.7,36.3,25.4,35,25"
	/>
</svg>
