<?xml version="1.0" encoding="UTF-8" standalone="no"?>
<!-- Created with Inkscape (http://www.inkscape.org/) -->

<svg
   xmlns:dc="http://purl.org/dc/elements/1.1/"
   xmlns:cc="http://creativecommons.org/ns#"
   xmlns:rdf="http://www.w3.org/1999/02/22-rdf-syntax-ns#"
   xmlns:svg="http://www.w3.org/2000/svg"
   xmlns="http://www.w3.org/2000/svg"
   xmlns:sodipodi="http://sodipodi.sourceforge.net/DTD/sodipodi-0.dtd"
   xmlns:inkscape="http://www.inkscape.org/namespaces/inkscape"
   width="547.06702"
   height="100"
   viewBox="0 0 547.06707 100.00001"
   id="svg2"
   version="1.1"
   inkscape:version="0.92.1 unknown"
   sodipodi:docname="libre-logo.svg">
  <defs
     id="defs4" />
  <sodipodi:namedview
     id="base"
     pagecolor="#ffffff"
     bordercolor="#666666"
     borderopacity="1"
     inkscape:pageopacity="1"
     inkscape:pageshadow="2"
     inkscape:zoom="0.1767767"
     inkscape:cx="-271.50688"
     inkscape:cy="423.54729"
     inkscape:document-units="px"
     inkscape:current-layer="layer1"
     showgrid="false"
     units="px"
     inkscape:showpageshadow="false"
     inkscape:window-width="1365"
     inkscape:window-height="688"
     inkscape:window-x="1"
     inkscape:window-y="0"
     inkscape:window-maximized="1"
     borderlayer="false"
     showborder="true"
     showguides="true">
    <inkscape:grid
       type="axonomgrid"
       id="grid4145"
       empspacing="5"
       color="#3f3fff"
       opacity="0.58431373"
       empcolor="#3f3fff"
       empopacity="0.14117647" />
  </sodipodi:namedview>
  <metadata
     id="metadata7">
    <rdf:RDF>
      <cc:Work
         rdf:about="">
        <dc:format>image/svg+xml</dc:format>
        <dc:type
           rdf:resource="http://purl.org/dc/dcmitype/StillImage" />
        <dc:title></dc:title>
        <dc:creator>
          <cc:Agent>
            <dc:title>Daniel Vinciguerra</dc:title>
          </cc:Agent>
        </dc:creator>
        <dc:subject>
          <rdf:Bag>
            <rdf:li>SVG</rdf:li>
            <rdf:li>web</rdf:li>
            <rdf:li>templates</rdf:li>
          </rdf:Bag>
        </dc:subject>
      </cc:Work>
    </rdf:RDF>
  </metadata>
  <g
     inkscape:label="Layer 1"
     inkscape:groupmode="layer"
     id="layer1"
     transform="translate(0,-952.36142)">
    <g
       id="g5823-8-3"
       transform="matrix(8.3097277,0,0,8.3097277,-531.82847,9939.9414)"
       style="stroke-width:0.12034089">
      <g
         transform="translate(-2.3249969,76.87484)"
         id="g5596-7-8-6"
         style="stroke-width:0.12034089" />
      <g
         id="g5601-1-5-7"
         transform="translate(-2.6774755,76.89674)"
         style="stroke-width:0.12034089" />
      <g
         id="g5634-9-0-5"
         transform="translate(-2.7393068,76.89674)"
         style="stroke-width:0.12034089" />
      <g
         transform="translate(-0.12631248,0.01727694)"
         id="g5802-9-3"
         style="stroke-width:0.12034089">
        <g
           transform="translate(-2.7393189,76.89674)"
           id="g5696-1-6-5"
           style="stroke-width:0.12034089">
          <g
             transform="translate(0,-2.2649765e-5)"
             id="g5607-7-3-6"
             style="stroke-width:0.12034089" />
        </g>
      </g>
      <g
         id="g5688-7-8-2"
         transform="translate(-2.8093066,76.89674)"
         style="stroke-width:0.12034089">
        <g
           id="g5628-6-5-9"
           style="stroke-width:0.12034089">
          <path
             id="rect5418-6-6-7-6-1"
             style="color:#000000;clip-rule:nonzero;display:inline;overflow:visible;visibility:visible;opacity:1;isolation:auto;mix-blend-mode:normal;color-interpolation:sRGB;color-interpolation-filters:linearRGB;solid-color:#000000;solid-opacity:1;fill:#2c8d57;fill-opacity:1;fill-rule:nonzero;stroke:none;stroke-width:4.81363535;stroke-linecap:round;stroke-linejoin:round;stroke-miterlimit:4;stroke-dasharray:none;stroke-dashoffset:0;stroke-opacity:1;color-rendering:auto;image-rendering:auto;shape-rendering:auto;text-rendering:auto;enable-background:accumulate"
             d="m 107.21853,-1158.4602 v 2.4027 9.6111 h 2.40277 v -4.0453 h 6.06558 l 1.18027,3.8036 2.49428,0.01 -1.31988,-4.3022 c 1.15442,-0.6751 1.81092,-2.006 1.79738,-3.5232 -0.0185,-2.0722 -1.26738,-3.8052 -3.31319,-3.9409 v -0.012 h -6.90444 z m 2.40277,2.4027 h 5.40036 v 0.04 c 0,0 0.93895,-0.071 1.31402,0.1619 0.49038,0.304 0.96546,0.8674 0.95266,1.4443 -0.013,0.5876 -0.5252,1.1349 -1.03479,1.4278 -0.0724,0.042 -0.16971,0.069 -0.27336,0.089 h -6.35889 z m -8.00004,-2.4123 c -2.90982,0.04 -5.835944,0.011 -8.75463,0.02 0,4.0046 0,8.0093 0,12.0138 2.843903,0 5.687806,0 8.53171,0 0.20989,-0.052 0.51162,-0.012 0.75673,-0.028 1.64805,-0.01 3.45666,-0.8361 4.07227,-2.4539 0.54156,-1.3914 -0.0627,-3.0466 -1.27998,-3.8722 1.14993,-1.3699 0.99037,-3.6687 -0.45544,-4.7714 -0.80209,-0.646 -1.85333,-0.9204 -2.87066,-0.9082 z m 0,2.4169 c 0.67277,-0.033 1.5864,0.1928 1.71658,0.9683 0.0733,0.8888 -0.89313,1.4345 -1.68245,1.3933 -0.36512,-0.01 -0.70467,0.01 -1.04917,0.026 -0.72108,0.045 -1.509117,0.01 -2.25864,0.021 -1.02606,0 -2.05212,0 -3.07818,0 0,-0.8009 0,-1.6018 0,-2.4028 1.716822,0 3.433645,0 5.15046,0 0.25,0.042 0.58668,-0.01 0.86993,0 0.11049,0 0.22097,-0.01 0.33147,-0.01 z m -6.35186,4.8113 c 2.44266,0 4.88532,0 7.32798,0 0.64945,0.1152 1.44588,0.5639 1.41593,1.3095 -0.21914,0.8253 -1.20486,1.0708 -1.95655,1.0648 -0.77855,0 -1.51038,0.041 -2.289046,0.028 -1.499438,0 -2.998876,0 -4.498314,0 0,-0.8009 0,-1.6018 0,-2.4027 z m 25.36128,-7.2186 v 2.4027 2.4028 2.4028 2.4027 2.4028 h 12.01384 v -2.4028 h -9.61107 v -2.4027 h 8.40969 v -2.4028 h -8.40969 v -2.4028 h 9.61107 v -2.4027 h -9.61107 z m -40.56943,0 v 2.4027 h 4.805538 v 7.2083 H 80.06125 v 2.4028 h 4.805538 2.40277 4.805538 v -2.4028 h -4.805538 v -7.2083 h 4.805538 v -2.4027 h -4.805538 -2.40277 z m -13.251207,0 v 9.611 2.4028 h 2.402769 10.056903 v -2.4028 H 69.212812 v -9.611 z"
             inkscape:connector-curvature="0" />
        </g>
      </g>
    </g>
  </g>
</svg>
